<svg width="24" height="24" viewBox="0 0 24 24" fill="none" xmlns="http://www.w3.org/2000/svg">
<path d="M7 18C5.9 18 5.01 18.9 5.01 20C5.01 21.1 5.9 22 7 22C8.1 22 9 21.1 9 20C9 18.9 8.1 18 7 18ZM17 18C15.9 18 15.01 18.9 15.01 20C15.01 21.1 15.9 22 17 22C18.1 22 19 21.1 19 20C19 18.9 18.1 18 17 18ZM7.17 14.75L7.2 14.63L8.1 13H15.55C16.3 13 16.96 12.59 17.3 11.97L21.16 5.96C21.26 5.79 21.31 5.61 21.31 5.42C21.31 4.84 20.81 4.34 20.23 4.34H5.66L4.5 2H1.75V4H3.75L7.1 11.09L5.6 13.8C5.26 14.45 5.73 15.25 6.45 15.25H18.75V13.25H7.17V14.75Z" fill="#4CAF50"/>
</svg>
