<svg width="54" height="54" viewBox="0 0 54 54" fill="none" xmlns="http://www.w3.org/2000/svg">
<rect width="54" height="54" rx="10" fill="black" fill-opacity="0.12"/>
<path d="M12.0105 13.4123C12.3638 12.0645 13.5923 11.25 14.8837 11.25C15.6803 11.25 16.4047 11.5493 16.956 12.0375C17.5638 11.5277 18.3317 11.2483 19.125 11.2483C19.9183 11.2483 20.6862 11.5277 21.294 12.0375C21.8643 11.529 22.6021 11.2486 23.3663 11.25C24.6578 11.25 25.8863 12.0645 26.2395 13.4123C26.577 14.6993 27 16.7738 27 19.125C26.9999 20.438 26.6716 21.7302 26.0448 22.8839C25.418 24.0377 24.5127 25.0164 23.4113 25.731C22.8015 26.1293 22.5 26.6423 22.5 27.081V27.972C22.5 28.023 22.503 28.0725 22.509 28.1205C22.5855 28.6785 22.8623 30.7508 23.121 32.8995C23.3752 35.0078 23.625 37.3073 23.625 38.25C23.625 39.4435 23.1509 40.5881 22.307 41.432C21.4631 42.2759 20.3185 42.75 19.125 42.75C17.9315 42.75 16.7869 42.2759 15.943 41.432C15.0991 40.5881 14.625 39.4435 14.625 38.25C14.625 37.305 14.8747 35.01 15.129 32.8995C15.3878 30.7508 15.6645 28.6785 15.741 28.1205L15.75 27.972V27.081C15.75 26.6423 15.4485 26.1293 14.8388 25.731C13.7373 25.0164 12.832 24.0377 12.2052 22.8839C11.5784 21.7302 11.2501 20.438 11.25 19.125C11.25 16.7738 11.673 14.6993 12.0105 13.4123ZM22.5 20.25C22.5 20.5484 22.3815 20.8346 22.1705 21.0455C21.9595 21.2565 21.6734 21.375 21.375 21.375C21.0766 21.375 20.7905 21.2565 20.5795 21.0455C20.3685 20.8346 20.25 20.5484 20.25 20.25V14.625C20.25 14.3267 20.1315 14.0405 19.9205 13.8296C19.7095 13.6186 19.4234 13.5 19.125 13.5C18.8266 13.5 18.5405 13.6186 18.3295 13.8296C18.1185 14.0405 18 14.3267 18 14.625V20.25C18 20.5484 17.8815 20.8346 17.6705 21.0455C17.4595 21.2565 17.1734 21.375 16.875 21.375C16.5766 21.375 16.2905 21.2565 16.0795 21.0455C15.8685 20.8346 15.75 20.5484 15.75 20.25V14.3663C15.75 14.1366 15.6587 13.9162 15.4963 13.7538C15.3338 13.5913 15.1135 13.5 14.8837 13.5C14.5103 13.5 14.2538 13.7228 14.1863 13.9838C13.7428 15.662 13.5123 17.3893 13.5 19.125C13.4999 20.0634 13.7345 20.9868 14.1825 21.8113C14.6305 22.6358 15.2777 23.3351 16.065 23.8455C17.0528 24.4868 18 25.614 18 27.081V27.972C18 28.122 17.9903 28.272 17.9707 28.422C17.8942 28.9755 17.6198 31.0343 17.3632 33.1695C17.1023 35.3408 16.875 37.476 16.875 38.25C16.875 38.8468 17.1121 39.4191 17.534 39.841C17.956 40.263 18.5283 40.5 19.125 40.5C19.7217 40.5 20.294 40.263 20.716 39.841C21.1379 39.4191 21.375 38.8468 21.375 38.25C21.375 37.476 21.15 35.3408 20.8868 33.1673C20.6302 31.0343 20.3558 28.9755 20.2793 28.4198C20.2621 28.2719 20.2524 28.1232 20.25 27.9743V27.0833C20.25 25.6163 21.1973 24.489 22.185 23.8478C22.9727 23.3371 23.62 22.6375 24.068 21.8126C24.516 20.9877 24.7505 20.0638 24.75 19.125C24.75 17.028 24.372 15.156 24.0638 13.9838C23.9963 13.725 23.7375 13.5 23.3663 13.5C23.1365 13.5 22.9162 13.5913 22.7537 13.7538C22.5913 13.9162 22.5 14.1366 22.5 14.3663V20.25ZM29.25 21.375C29.25 18.6897 30.3167 16.1144 32.2155 14.2156C34.1144 12.3168 36.6897 11.25 39.375 11.25C39.6734 11.25 39.9595 11.3686 40.1705 11.5796C40.3815 11.7905 40.5 12.0767 40.5 12.375V25.8143L40.5427 26.2125C40.7217 27.8918 40.8935 29.5718 41.058 31.2525C41.3348 34.0785 41.625 37.2465 41.625 38.25C41.625 39.4435 41.1509 40.5881 40.307 41.432C39.4631 42.2759 38.3185 42.75 37.125 42.75C35.9315 42.75 34.7869 42.2759 33.943 41.432C33.0991 40.5881 32.625 39.4435 32.625 38.25C32.625 37.2465 32.9152 34.0785 33.192 31.2525C33.3337 29.8193 33.4755 28.4468 33.5813 27.4298L33.6262 27H31.5C30.9033 27 30.331 26.763 29.909 26.341C29.4871 25.9191 29.25 25.3468 29.25 24.75V21.375ZM35.9932 25.9943L35.946 26.4488C35.7701 28.123 35.5991 29.7978 35.433 31.473C35.1473 34.3688 34.875 37.3905 34.875 38.25C34.875 38.8468 35.1121 39.4191 35.534 39.841C35.956 40.263 36.5283 40.5 37.125 40.5C37.7217 40.5 38.294 40.263 38.716 39.841C39.1379 39.4191 39.375 38.8468 39.375 38.25C39.375 37.3883 39.1027 34.3688 38.817 31.473C38.652 29.7977 38.481 28.1229 38.304 26.4488L38.2568 25.9965L38.25 25.875V13.5788C36.3754 13.8494 34.6611 14.7865 33.4214 16.2184C32.1817 17.6503 31.4995 19.481 31.5 21.375V24.75H34.875C35.0328 24.7501 35.1887 24.7833 35.3328 24.8476C35.4769 24.9119 35.6059 25.0057 35.7113 25.123C35.8168 25.2404 35.8964 25.3786 35.9449 25.5287C35.9935 25.6788 36.01 25.8374 35.9932 25.9943Z" fill="#13CFB8"/>
</svg>
