<svg width="54" height="54" viewBox="0 0 54 54" fill="none" xmlns="http://www.w3.org/2000/svg">
<rect width="54" height="54" rx="10" fill="black" fill-opacity="0.12"/>
<path d="M38.25 20.1724H15.75C14.7557 20.1734 13.8025 20.5661 13.0994 21.2643C12.3964 21.9625 12.001 22.9092 12 23.8966V31.3448C12 32.0033 12.2634 32.6348 12.7322 33.1004C13.2011 33.566 13.837 33.8276 14.5 33.8276V42.5172C14.5 43.1757 14.7634 43.8072 15.2322 44.2728C15.7011 44.7384 16.337 45 17 45H22C22.663 45 23.2989 44.7384 23.7678 44.2728C24.2366 43.8072 24.5 43.1757 24.5 42.5172V27.6207H22V42.5172H17V31.3448H14.5V23.8966C14.5 23.5673 14.6317 23.2516 14.8661 23.0188C15.1005 22.786 15.4185 22.6552 15.75 22.6552H38.25C38.5815 22.6552 38.8995 22.786 39.1339 23.0188C39.3683 23.2516 39.5 23.5673 39.5 23.8966V31.3448H37V42.5172H32V27.6207H29.5V42.5172C29.5 43.1757 29.7634 43.8072 30.2322 44.2728C30.7011 44.7384 31.337 45 32 45H37C37.663 45 38.2989 44.7384 38.7678 44.2728C39.2366 43.8072 39.5 43.1757 39.5 42.5172V33.8276C40.163 33.8276 40.7989 33.566 41.2678 33.1004C41.7366 32.6348 42 32.0033 42 31.3448V23.8966C41.999 22.9092 41.6036 21.9625 40.9006 21.2643C40.1975 20.5661 39.2443 20.1734 38.25 20.1724ZM19.5 18.931C18.5111 18.931 17.5444 18.6398 16.7221 18.0942C15.8999 17.5486 15.259 16.7731 14.8806 15.8657C14.5022 14.9584 14.4031 13.96 14.5961 12.9968C14.789 12.0336 15.2652 11.1488 15.9645 10.4544C16.6637 9.75993 17.5546 9.28701 18.5245 9.09541C19.4945 8.90382 20.4998 9.00215 21.4134 9.37798C22.327 9.75381 23.1079 10.3903 23.6573 11.2068C24.2068 12.0234 24.5 12.9834 24.5 13.9655C24.4987 15.2821 23.9715 16.5443 23.0341 17.4752C22.0967 18.4061 20.8257 18.9297 19.5 18.931ZM19.5 11.4828C19.0055 11.4828 18.5222 11.6284 18.1111 11.9012C17.7 12.174 17.3795 12.5617 17.1903 13.0154C17.0011 13.4691 16.9516 13.9683 17.048 14.4499C17.1445 14.9315 17.3826 15.3739 17.7322 15.7211C18.0819 16.0683 18.5273 16.3048 19.0123 16.4006C19.4972 16.4964 19.9999 16.4472 20.4567 16.2593C20.9135 16.0714 21.304 15.7532 21.5787 15.3449C21.8534 14.9366 22 14.4566 22 13.9655C22 13.3071 21.7366 12.6756 21.2678 12.2099C20.7989 11.7443 20.163 11.4828 19.5 11.4828ZM34.5 18.931C33.5111 18.931 32.5444 18.6398 31.7221 18.0942C30.8999 17.5486 30.259 16.7731 29.8806 15.8657C29.5022 14.9584 29.4031 13.96 29.5961 12.9968C29.789 12.0336 30.2652 11.1488 30.9645 10.4544C31.6637 9.75993 32.5546 9.28701 33.5245 9.09541C34.4945 8.90382 35.4998 9.00215 36.4134 9.37798C37.327 9.75381 38.1079 10.3903 38.6573 11.2068C39.2068 12.0234 39.5 12.9834 39.5 13.9655C39.4987 15.2821 38.9715 16.5443 38.0341 17.4752C37.0967 18.4061 35.8257 18.9297 34.5 18.931ZM34.5 11.4828C34.0055 11.4828 33.5222 11.6284 33.1111 11.9012C32.6999 12.174 32.3795 12.5617 32.1903 13.0154C32.0011 13.4691 31.9516 13.9683 32.048 14.4499C32.1445 14.9315 32.3826 15.3739 32.7322 15.7211C33.0819 16.0683 33.5273 16.3048 34.0123 16.4006C34.4972 16.4964 34.9999 16.4472 35.4567 16.2593C35.9135 16.0714 36.304 15.7532 36.5787 15.3449C36.8534 14.9366 37 14.4566 37 13.9655C37 13.3071 36.7366 12.6756 36.2678 12.2099C35.7989 11.7443 35.163 11.4828 34.5 11.4828Z" fill="#13CFB8"/>
</svg>
