<svg width="54" height="54" viewBox="0 0 54 54" fill="none" xmlns="http://www.w3.org/2000/svg">
<rect width="54" height="54" rx="10" fill="black" fill-opacity="0.12"/>
<path d="M16.375 44C15.4469 44 14.6526 43.6674 13.9922 43.0021C13.3319 42.3368 13.0011 41.5361 13 40.6V13.4C13 12.465 13.3307 11.6649 13.9922 10.9996C14.6537 10.3343 15.448 10.0011 16.375 10H36.625C37.5531 10 38.3479 10.3332 39.0094 10.9996C39.6709 11.666 40.0011 12.4661 40 13.4V40.6C40 41.535 39.6698 42.3357 39.0094 43.0021C38.3491 43.6685 37.5542 44.0011 36.625 44H16.375ZM16.375 40.6H36.625V13.4H16.375V40.6ZM26.5 38.9C28.8344 38.9 30.8245 38.071 32.4704 36.4129C34.1162 34.7548 34.9386 32.7505 34.9375 30.4C34.9364 28.0495 34.1134 26.0452 32.4687 24.3871C30.8239 22.729 28.8344 21.9 26.5 21.9C24.1656 21.9 22.1761 22.729 20.5313 24.3871C18.8866 26.0452 18.0636 28.0495 18.0625 30.4C18.0614 32.7505 18.8843 34.7554 20.5313 36.4146C22.1783 38.0738 24.1679 38.9023 26.5 38.9ZM26.5 36.01C25.7687 36.01 25.0583 35.8751 24.3687 35.6054C23.6791 35.3357 23.0676 34.9322 22.5344 34.395L30.4656 26.405C31 26.9433 31.4011 27.5599 31.6688 28.2546C31.9366 28.9493 32.0699 29.6645 32.0687 30.4C32.0687 31.9583 31.5276 33.2832 30.4454 34.3746C29.3631 35.466 28.048 36.0111 26.5 36.01ZM19.75 18.5C20.2281 18.5 20.6292 18.3368 20.9532 18.0104C21.2772 17.684 21.4386 17.2805 21.4375 16.8C21.4364 16.3195 21.2744 15.916 20.9515 15.5896C20.6286 15.2632 20.2281 15.1 19.75 15.1C19.2719 15.1 18.8714 15.2632 18.5485 15.5896C18.2256 15.916 18.0636 16.3195 18.0625 16.8C18.0614 17.2805 18.2234 17.6846 18.5485 18.0121C18.8736 18.3396 19.2741 18.5023 19.75 18.5ZM24.8125 18.5C25.2906 18.5 25.6917 18.3368 26.0157 18.0104C26.3397 17.684 26.5011 17.2805 26.5 16.8C26.4989 16.3195 26.3369 15.916 26.014 15.5896C25.6911 15.2632 25.2906 15.1 24.8125 15.1C24.3344 15.1 23.9339 15.2632 23.611 15.5896C23.2881 15.916 23.1261 16.3195 23.125 16.8C23.1239 17.2805 23.2859 17.6846 23.611 18.0121C23.9361 18.3396 24.3366 18.5023 24.8125 18.5Z" fill="#13CFB8"/>
</svg>
