<svg width="54" height="54" viewBox="0 0 54 54" fill="none" xmlns="http://www.w3.org/2000/svg">
<rect width="54" height="54" rx="10" fill="black" fill-opacity="0.12"/>
<path fill-rule="evenodd" clip-rule="evenodd" d="M24.1278 13H30.8097C33.7965 13 36.1625 13 38.0134 13.2486C39.9179 13.5054 41.46 14.0449 42.6771 15.2604C43.8926 16.4775 44.4321 18.0196 44.6889 19.9241C44.9375 21.7766 44.9375 24.141 44.9375 27.1278V27.3097C44.9375 30.2965 44.9375 32.6625 44.6889 34.5134C44.4321 36.4179 43.8926 37.96 42.6771 39.1771C41.46 40.3926 39.9179 40.9321 38.0134 41.1889C36.1609 41.4375 33.7965 41.4375 30.8097 41.4375H24.1278C21.141 41.4375 18.775 41.4375 16.9241 41.1889C15.0196 40.9321 13.4775 40.3926 12.2604 39.1771C11.0449 37.96 10.5054 36.4179 10.2486 34.5134C10 32.6609 10 30.2965 10 27.3097V27.1278C10 24.141 10 21.775 10.2486 19.9241C10.5054 18.0196 11.0449 16.4775 12.2604 15.2604C13.4775 14.0449 15.0196 13.5054 16.9241 13.2486C18.7766 13 21.141 13 24.1278 13ZM17.2475 15.665C15.6128 15.8844 14.6702 16.2971 13.9813 16.9845C13.2955 17.6719 12.8828 18.6144 12.6634 20.2491C12.4391 21.9196 12.4359 24.1199 12.4359 27.2188C12.4359 30.3176 12.4391 32.5195 12.6634 34.19C12.8828 35.8231 13.2955 36.7656 13.9829 37.453C14.6702 38.1404 15.6128 38.5531 17.2475 38.7725C18.918 38.9968 21.1182 39 24.2171 39H30.7171C33.816 39 36.0179 38.9968 37.6884 38.7725C39.3215 38.5531 40.264 38.1404 40.9514 37.453C41.6388 36.7656 42.0515 35.8231 42.2709 34.1884C42.4951 32.5179 42.4984 30.3176 42.4984 27.2188C42.4984 24.1199 42.4951 21.9196 42.2709 20.2475C42.0515 18.6144 41.6388 17.6719 40.9514 16.9845C40.264 16.2971 39.3215 15.8844 37.6868 15.665C36.0179 15.4407 33.816 15.4375 30.7171 15.4375H24.2171C21.1182 15.4375 18.9196 15.4407 17.2475 15.665ZM16.7795 19.9387C16.9864 19.6906 17.2834 19.5348 17.6052 19.5055C17.927 19.4762 18.2472 19.576 18.4955 19.7827L22.0088 22.7061C23.5249 23.9687 24.5762 24.843 25.4667 25.415C26.3264 25.9675 26.9097 26.1544 27.4704 26.1544C28.031 26.1544 28.6144 25.9691 29.474 25.415C30.3629 24.843 31.4159 23.9687 32.932 22.7061L36.4404 19.7811C36.5634 19.6787 36.7054 19.6015 36.8583 19.5539C37.0111 19.5064 37.1718 19.4894 37.3313 19.504C37.4907 19.5185 37.6457 19.5643 37.7874 19.6388C37.9291 19.7133 38.0548 19.8149 38.1572 19.9379C38.2596 20.061 38.3368 20.203 38.3844 20.3558C38.4319 20.5087 38.4489 20.6694 38.4343 20.8288C38.4198 20.9882 38.374 21.1432 38.2995 21.2849C38.225 21.4267 38.1234 21.5523 38.0004 21.6548L34.4319 24.6285C32.9905 25.831 31.8238 26.8028 30.7919 27.4658C29.7194 28.1564 28.6745 28.5919 27.4704 28.5919C26.2663 28.5919 25.2214 28.1548 24.1473 27.4658C23.117 26.8028 21.9502 25.8294 20.5089 24.6301L16.9387 21.6564C16.8156 21.5539 16.7139 21.4282 16.6395 21.2863C16.565 21.1445 16.5192 20.9894 16.5047 20.8299C16.4902 20.6704 16.5073 20.5096 16.555 20.3566C16.6027 20.2037 16.6801 20.0617 16.7827 19.9387" fill="#13CFB8"/>
</svg>
