<svg width="122" height="122" viewBox="0 0 122 122" fill="none" xmlns="http://www.w3.org/2000/svg">
<path d="M60.6187 113.231C34.0265 113.231 5.3374 96.5516 5.3374 59.9516C5.3374 23.3516 34.0265 6.67188 60.6187 6.67188C75.3921 6.67188 89.0218 11.5328 99.1249 20.3969C110.086 30.1188 115.9 43.8438 115.9 59.9516C115.9 76.0594 110.086 89.6891 99.1249 99.411C89.0218 108.275 75.2968 113.231 60.6187 113.231Z" fill="url(#paint0_radial_3_87)"/>
<path d="M60.6187 113.231C34.0265 113.231 5.3374 96.5516 5.3374 59.9516C5.3374 23.3516 34.0265 6.67188 60.6187 6.67188C75.3921 6.67188 89.0218 11.5328 99.1249 20.3969C110.086 30.1188 115.9 43.8438 115.9 59.9516C115.9 76.0594 110.086 89.6891 99.1249 99.411C89.0218 108.275 75.2968 113.231 60.6187 113.231Z" fill="url(#paint1_linear_3_87)"/>
<path d="M106.264 28.2793C111.344 36.4762 113.994 46.2362 113.994 57.0923C113.994 73.2001 108.18 86.8298 97.2188 96.5517C87.1157 105.416 73.3907 110.372 58.7126 110.372C41.4991 110.372 23.447 103.366 12.791 88.5073C23.0466 105.339 42.3379 113.231 60.6188 113.231C75.297 113.231 89.022 108.275 99.1251 99.411C110.086 89.6891 115.9 76.0595 115.9 59.9516C115.9 47.8088 112.593 37.0195 106.264 28.2793Z" fill="#EB8F00"/>
<path d="M6.0618 71.5796C4.32711 73.686 8.01571 79.2809 8.67336 82.1307C10.2555 89.0123 8.67336 90.7088 8.54946 96.8279C8.44461 103.557 10.4557 109.219 15.5835 112.831C20.4063 116.253 26.2204 118.006 33.6548 115.814C41.0891 113.622 45.607 111.201 45.9882 107.541C46.1979 106.026 45.3973 104.539 44.0057 103.891C44.7491 103.538 45.3401 102.937 45.6737 102.184C47.4465 97.9526 43.9104 97.0566 43.9104 97.0566C44.3965 96.4752 44.8063 95.8366 45.1304 95.1504C46.1884 93.044 46.0168 90.1846 42.9668 89.2506C41.5657 88.8216 41.1845 89.0504 41.1845 89.0504C42.6332 87.5635 44.3679 86.3721 46.2837 85.5715C51.4115 83.3698 57.4924 82.0354 59.0079 80.7487C61.2096 78.8424 61.343 75.1729 57.4543 74.0768C51.869 72.4374 41.5943 76.2499 35.3418 80.2245C29.0893 84.199 23.3515 86.3435 21.4452 85.6191C19.539 84.8948 18.3571 83.7129 17.6327 80.8535C16.2888 75.5351 15.2499 73.4763 12.972 71.4843C11.0848 69.864 7.39617 69.9593 6.0618 71.5796Z" fill="url(#paint2_radial_3_87)"/>
<path d="M61.181 76.6121C60.5424 67.8815 43.348 73.2762 34.5698 79.0236C23.6565 86.172 22.0552 84.9043 20.9877 84.2371C19.701 83.4365 18.8909 82.7693 18.2618 80.2912C16.8416 74.6868 16.4509 72.6281 13.8965 70.3978C11.7615 68.4248 5.32789 68.4725 4.89899 71.5987C4.43196 74.9632 6.33821 75.5923 7.62493 82.064C9.21664 88.6215 8.57805 95.8653 8.57805 95.8653C8.57805 95.8653 11.5518 88.9551 8.69243 78.1848C8.11102 75.2778 5.34696 70.8267 10.0173 71.3318C14.5351 71.8179 14.8306 75.7543 16.2412 81.1967C17.0227 84.2753 17.8234 86.0862 20.9305 86.944C24.0187 87.7923 31.1576 83.8273 36.2854 80.5676C42.5665 76.574 51.8785 73.0856 56.7681 74.5153C58.884 74.9728 60.2946 77.7082 58.0738 79.6431C54.5473 82.9695 40.9843 84.4659 32.816 93.3014C32.816 93.3014 33.8073 93.6636 35.2941 92.9296C36.7905 92.1957 42.3759 89.4317 42.3759 89.4317C44.0438 90.137 44.8445 92.9106 43.939 94.3879C42.4712 96.7803 36.762 100.088 33.9121 99.9447C33.9121 99.9447 33.8645 101.403 36.7238 101.012C37.6293 100.888 41.3751 100.069 43.9962 98.0384C45.9501 99.449 45.3973 101.851 43.9295 103.586C42.4712 105.311 38.9065 107.541 35.237 107.932C35.237 107.932 34.8748 109.323 37.3434 109.295C39.812 109.266 42.4902 108.008 44.4632 106.474C44.7587 106.941 45.0351 107.96 44.7015 109.362C44.1868 111.525 41.2798 113.717 35.6659 114.937C30.4904 116.062 24.6573 116.853 13.4009 111.01C13.4009 111.01 17.6041 116.472 28.5746 117.444C39.0971 118.378 51.3829 113.717 46.4552 104.367C46.4552 104.367 47.5227 102.785 47.6562 100.612C47.7515 99.125 47.2845 97.0948 46.1884 96.1703C47.2177 93.1393 46.8937 91.0425 46.236 89.8034C45.7976 88.9837 44.692 88.1831 44.692 88.1831C44.692 88.1831 46.8746 86.2101 53.3082 84.5517C57.4352 83.4746 61.5718 81.9496 61.181 76.6121Z" fill="#EB8F00"/>
<path d="M17.7662 78.2803C17.7662 78.2803 22.3698 85.7718 32.5111 80.339C32.5111 80.339 26.2872 86.8679 21.4453 85.6193C16.6034 84.3707 17.7662 78.2803 17.7662 78.2803ZM46.7031 91.0617C46.7031 91.0617 49.0478 86.0292 53.3178 84.5328C53.3178 84.5328 46.379 85.1237 43.7389 87.9736L46.7031 91.0617Z" fill="#EB8F00"/>
<path d="M73.2668 67.9674C72.9618 67.9102 72.6759 67.7863 72.4376 67.5862C68.1416 64.1386 63.0134 61.8835 57.5689 61.0477C52.1265 60.1041 46.5412 60.6188 41.3657 62.5346C41.0798 62.649 40.7748 62.6871 40.4698 62.6395C39.8026 62.5251 39.2593 62.0294 39.0782 61.3718C38.8971 60.7237 39.1164 60.0374 39.631 59.6085C49.7342 51.221 64.7173 52.6126 73.1048 62.7157C73.791 63.5449 74.4201 64.4218 74.992 65.3273C75.3542 65.8896 75.3542 66.614 74.992 67.1763C74.6203 67.7577 73.9435 68.0627 73.2668 67.9674ZM76.984 29.6518C80.9776 29.6518 84.609 33.0259 84.609 38.6302C84.609 44.2346 80.9776 47.5991 76.984 47.5991C72.9904 47.5991 69.359 44.2251 69.359 38.6302C69.359 33.0354 72.9904 29.6518 76.984 29.6518ZM43.9773 20.9688C39.9837 20.9688 36.3523 24.3429 36.3523 29.9377C36.3523 35.5326 39.9837 38.9162 43.9773 38.9162C47.9804 38.9162 51.6023 35.5421 51.6023 29.9377C51.6023 24.3334 47.9804 20.9688 43.9773 20.9688ZM37.8678 10.1318C37.4389 9.42648 37.3817 8.54961 37.7153 7.79664C38.0775 7.04367 38.7923 6.52898 39.6215 6.42414C44.816 5.61398 50.1154 6.84351 54.4235 9.84586C56.0343 10.9515 57.464 12.2859 58.6745 13.8204C58.7507 13.9157 58.8174 14.0205 58.8842 14.1349C59.5323 15.1452 59.3131 16.4796 58.379 17.2326C57.8935 17.6346 57.2794 17.8482 56.6492 17.8341C56.019 17.8201 55.4149 17.5795 54.9478 17.1563L55.3481 16.5082L54.862 17.0801C50.6904 13.5904 45.4675 11.6033 40.0314 11.4376C39.1259 11.4376 38.2871 10.961 37.8296 10.1795L37.8678 10.1318ZM88.6407 27.1832C88.989 26.9889 89.2863 26.7148 89.5083 26.3835C89.7303 26.0522 89.8706 25.673 89.9179 25.277C89.9479 24.87 89.8765 24.462 89.7101 24.0895C89.5438 23.7169 89.2877 23.3913 88.9648 23.142C84.8378 19.8537 79.5956 18.281 74.3439 18.7766C72.3995 18.9387 70.4932 19.3962 68.6823 20.1301L68.3392 20.2921C67.2812 20.8545 66.8142 22.1221 67.2526 23.2373C67.4756 23.8225 67.9015 24.308 68.4526 24.6054C69.0037 24.9029 69.6434 24.9923 70.2549 24.8576V24.0951L70.3884 24.8385C75.7259 23.8473 81.2445 24.6765 86.0578 27.1927C86.8489 27.6407 87.8115 27.6407 88.6026 27.1927L88.6407 27.1832Z" fill="#422B0D"/>
<path d="M43.8056 23.9711C42.8239 23.2848 41.3466 23.504 40.3935 24.8765C39.4403 26.2586 39.7549 27.7073 40.7366 28.3936C41.7183 29.0798 43.1956 28.8606 44.1488 27.4881C45.1019 26.1061 44.7874 24.6573 43.8056 23.9711ZM76.7933 32.1298C75.8116 31.4436 74.3342 31.6628 73.3811 33.0353C72.428 34.4173 72.7425 35.8661 73.7242 36.5523C74.7059 37.2386 76.1833 37.0193 77.1364 35.6468C78.0991 34.2648 77.7845 32.8161 76.7933 32.1298Z" fill="#896024"/>
<defs>
<radialGradient id="paint0_radial_3_87" cx="0" cy="0" r="1" gradientUnits="userSpaceOnUse" gradientTransform="translate(60.6187 59.9516) scale(54.29 54.29)">
<stop offset="0.5" stop-color="#FDE030"/>
<stop offset="0.92" stop-color="#F7C02B"/>
<stop offset="1" stop-color="#F4A223"/>
</radialGradient>
<linearGradient id="paint1_linear_3_87" x1="60.6186" y1="113.231" x2="60.6186" y2="6.67188" gradientUnits="userSpaceOnUse">
<stop stop-color="#F4A223"/>
<stop offset="0.08" stop-color="#F7C02B"/>
<stop offset="0.54" stop-color="#FDE030" stop-opacity="0"/>
</linearGradient>
<radialGradient id="paint2_radial_3_87" cx="0" cy="0" r="1" gradientUnits="userSpaceOnUse" gradientTransform="translate(39.507 79.5996) scale(56.6461 53.2474)">
<stop offset="0.27" stop-color="#FFF176"/>
<stop offset="1" stop-color="#FFC400"/>
</radialGradient>
</defs>
</svg>
